<?xml version="1.0" standalone="no"?>
<!DOCTYPE svg PUBLIC "-//W3C//DTD SVG 20010904//EN"
 "http://www.w3.org/TR/2001/REC-SVG-20010904/DTD/svg10.dtd">
<svg version="1.0" xmlns="http://www.w3.org/2000/svg"
 width="204.000000pt" height="192.000000pt" viewBox="0 0 204.000000 192.000000"
 preserveAspectRatio="xMidYMid meet">

<g transform="translate(0.000000,192.000000) scale(0.100000,-0.100000)"
fill="#000000" stroke="none">
<path d="M994 1710 c-54 -21 -54 -20 -54 -478 l0 -423 25 -24 c32 -33 78 -33
110 0 l25 24 0 429 0 429 -22 20 c-29 26 -57 34 -84 23z"/>
<path d="M665 1488 c-83 -49 -197 -162 -244 -241 -163 -275 -117 -631 110
-855 381 -376 1024 -200 1165 318 25 88 24 271 0 360 -27 99 -90 211 -163 290
-78 84 -210 170 -261 170 -61 0 -101 -66 -72 -120 6 -10 38 -34 73 -52 83 -43
183 -145 224 -228 41 -84 55 -146 56 -245 0 -148 -48 -262 -158 -372 -83 -83
-159 -124 -276 -149 -265 -56 -543 119 -614 387 -19 71 -19 200 0 274 36 135
142 270 262 333 87 46 106 90 62 146 -31 40 -78 35 -164 -16z"/>
</g>
</svg>
